<svg width="36" height="36" viewBox="0 0 36 36" fill="none" xmlns="http://www.w3.org/2000/svg">
<path d="M14.85 23.2542H14.4C10.8 23.2542 9 22.3569 9 17.8704V13.3838C9 9.79462 10.8 8 14.4 8H21.6C25.2 8 27 9.79462 27 13.3838V17.8704C27 21.4596 25.2 23.2542 21.6 23.2542H21.15C20.871 23.2542 20.601 23.3888 20.43 23.6132L19.08 25.4078C18.486 26.1974 17.514 26.1974 16.92 25.4078L15.57 23.6132C15.426 23.4158 15.093 23.2542 14.85 23.2542Z" stroke="#173F5F" stroke-width="1.5" stroke-miterlimit="10" stroke-linecap="round" stroke-linejoin="round"/>
<path d="M14.85 23.2542H14.4C10.8 23.2542 9 22.3569 9 17.8704V13.3838C9 9.79462 10.8 8 14.4 8H21.6C25.2 8 27 9.79462 27 13.3838V17.8704C27 21.4596 25.2 23.2542 21.6 23.2542H21.15C20.871 23.2542 20.601 23.3888 20.43 23.6132L19.08 25.4078C18.486 26.1974 17.514 26.1974 16.92 25.4078L15.57 23.6132C15.426 23.4158 15.093 23.2542 14.85 23.2542Z" stroke="black" stroke-opacity="0.2" stroke-width="1.5" stroke-miterlimit="10" stroke-linecap="round" stroke-linejoin="round"/>
<path d="M14.85 23.2542H14.4C10.8 23.2542 9 22.3569 9 17.8704V13.3838C9 9.79462 10.8 8 14.4 8H21.6C25.2 8 27 9.79462 27 13.3838V17.8704C27 21.4596 25.2 23.2542 21.6 23.2542H21.15C20.871 23.2542 20.601 23.3888 20.43 23.6132L19.08 25.4078C18.486 26.1974 17.514 26.1974 16.92 25.4078L15.57 23.6132C15.426 23.4158 15.093 23.2542 14.85 23.2542Z" stroke="black" stroke-opacity="0.2" stroke-width="1.5" stroke-miterlimit="10" stroke-linecap="round" stroke-linejoin="round"/>
<path d="M14.85 23.2542H14.4C10.8 23.2542 9 22.3569 9 17.8704V13.3838C9 9.79462 10.8 8 14.4 8H21.6C25.2 8 27 9.79462 27 13.3838V17.8704C27 21.4596 25.2 23.2542 21.6 23.2542H21.15C20.871 23.2542 20.601 23.3888 20.43 23.6132L19.08 25.4078C18.486 26.1974 17.514 26.1974 16.92 25.4078L15.57 23.6132C15.426 23.4158 15.093 23.2542 14.85 23.2542Z" stroke="black" stroke-opacity="0.2" stroke-width="1.5" stroke-miterlimit="10" stroke-linecap="round" stroke-linejoin="round"/>
<path d="M14.85 23.2542H14.4C10.8 23.2542 9 22.3569 9 17.8704V13.3838C9 9.79462 10.8 8 14.4 8H21.6C25.2 8 27 9.79462 27 13.3838V17.8704C27 21.4596 25.2 23.2542 21.6 23.2542H21.15C20.871 23.2542 20.601 23.3888 20.43 23.6132L19.08 25.4078C18.486 26.1974 17.514 26.1974 16.92 25.4078L15.57 23.6132C15.426 23.4158 15.093 23.2542 14.85 23.2542Z" stroke="black" stroke-opacity="0.2" stroke-width="1.5" stroke-miterlimit="10" stroke-linecap="round" stroke-linejoin="round"/>
<path d="M14 13H22" stroke="#173F5F" stroke-width="1.5" stroke-linecap="round" stroke-linejoin="round"/>
<path d="M14 13H22" stroke="black" stroke-opacity="0.2" stroke-width="1.5" stroke-linecap="round" stroke-linejoin="round"/>
<path d="M14 13H22" stroke="black" stroke-opacity="0.2" stroke-width="1.5" stroke-linecap="round" stroke-linejoin="round"/>
<path d="M14 13H22" stroke="black" stroke-opacity="0.2" stroke-width="1.5" stroke-linecap="round" stroke-linejoin="round"/>
<path d="M14 13H22" stroke="black" stroke-opacity="0.2" stroke-width="1.5" stroke-linecap="round" stroke-linejoin="round"/>
<path d="M14 18H19" stroke="#173F5F" stroke-width="1.5" stroke-linecap="round" stroke-linejoin="round"/>
<path d="M14 18H19" stroke="black" stroke-opacity="0.2" stroke-width="1.5" stroke-linecap="round" stroke-linejoin="round"/>
<path d="M14 18H19" stroke="black" stroke-opacity="0.2" stroke-width="1.5" stroke-linecap="round" stroke-linejoin="round"/>
<path d="M14 18H19" stroke="black" stroke-opacity="0.2" stroke-width="1.5" stroke-linecap="round" stroke-linejoin="round"/>
<path d="M14 18H19" stroke="black" stroke-opacity="0.2" stroke-width="1.5" stroke-linecap="round" stroke-linejoin="round"/>
</svg>
