<svg width="18" height="18" viewBox="0 0 18 18" fill="none" xmlns="http://www.w3.org/2000/svg">
<path d="M6.71252 3.05994L11.6025 7.94994C12.18 8.52744 12.18 9.47244 11.6025 10.0499L6.71252 14.9399" stroke="#173F5F" stroke-width="1.5" stroke-miterlimit="10" stroke-linecap="round" stroke-linejoin="round"/>
<path d="M6.71252 3.05994L11.6025 7.94994C12.18 8.52744 12.18 9.47244 11.6025 10.0499L6.71252 14.9399" stroke="black" stroke-opacity="0.2" stroke-width="1.5" stroke-miterlimit="10" stroke-linecap="round" stroke-linejoin="round"/>
<path d="M6.71252 3.05994L11.6025 7.94994C12.18 8.52744 12.18 9.47244 11.6025 10.0499L6.71252 14.9399" stroke="black" stroke-opacity="0.2" stroke-width="1.5" stroke-miterlimit="10" stroke-linecap="round" stroke-linejoin="round"/>
<path d="M6.71252 3.05994L11.6025 7.94994C12.18 8.52744 12.18 9.47244 11.6025 10.0499L6.71252 14.9399" stroke="black" stroke-opacity="0.2" stroke-width="1.5" stroke-miterlimit="10" stroke-linecap="round" stroke-linejoin="round"/>
<path d="M6.71252 3.05994L11.6025 7.94994C12.18 8.52744 12.18 9.47244 11.6025 10.0499L6.71252 14.9399" stroke="black" stroke-opacity="0.2" stroke-width="1.5" stroke-miterlimit="10" stroke-linecap="round" stroke-linejoin="round"/>
</svg>
