<svg width="36" height="36" viewBox="0 0 36 36" fill="none" xmlns="http://www.w3.org/2000/svg">
<path d="M26.711 18.6004C24.262 15.947 20.2406 16.1102 17.171 17.4743C13.9511 18.9048 11.5578 22.6319 14.5161 25.8609C16.512 28.0811 19.9178 27.7389 22.5 27C26.8414 25.7577 30 22 26.711 18.6004Z" stroke="black" stroke-width="1.3"/>
<path d="M10.491 14.5049C10.6242 14.7833 10.763 15.0588 10.9406 15.3114C11.2112 15.6993 11.5541 16.0331 11.9454 16.2959C11.9635 16.308 11.9816 16.3199 11.9999 16.3316C12.3706 16.5685 12.7719 16.7109 13.211 16.7437C14.0056 16.8032 14.8622 16.4658 15.3897 15.8682C15.7783 15.4262 15.8949 14.8981 15.7783 14.3183C15.6386 13.6146 15.2492 12.8756 14.8513 12.2861C14.7236 12.0938 14.5904 11.9044 14.4433 11.7293C14.116 11.3416 13.7495 10.9972 13.3692 10.6644C13.0805 10.4147 12.753 10.2367 12.3922 10.1248C11.8922 9.96761 11.3185 9.93435 10.8518 10.2138C10.1974 10.5897 9.79993 11.2364 9.79993 12.0077C9.79993 12.8993 10.1114 13.713 10.491 14.5049Z" stroke="black" stroke-width="1.3"/>
<path d="M17.8756 13.7063C18.0607 14.1627 18.3799 14.5076 18.8503 14.6718C19.5934 14.9283 20.542 14.7439 21.1626 14.279C22.0771 13.5877 22.3026 12.3897 22.1262 11.3191C21.9848 10.4559 21.5391 9.3839 20.8829 8.78803C20.3519 8.30897 19.7329 7.95526 18.9943 8.00519C18.3019 8.05087 17.7034 8.48718 17.4851 9.15593C17.0177 10.5763 17.3207 12.3551 17.8756 13.7063Z" stroke="black" stroke-width="1.3"/>
<path d="M6.20008 17.9742C5.54209 19.1548 6.35235 20.5545 7.24053 21.3346C7.98259 21.987 8.9214 22.6389 9.95185 22.5622C11.4678 22.4472 12.4393 19.6904 11.3968 18.56C10.2866 17.3148 7.18222 16.2005 6.20008 17.9742Z" stroke="black" stroke-width="1.3"/>
<path d="M26.0414 14.8826C27.9339 15.2746 28.7824 14.111 28.9318 12.4267C29.039 11.4021 28.7787 10.2346 28.0154 9.50064C27.614 9.11345 27.1295 8.93368 26.5619 9.02218C24.9337 9.27632 23.8174 11.2732 24.0176 12.8111C24.164 13.8879 25.0068 14.6681 26.0414 14.8826Z" stroke="black" stroke-width="1.3"/>
</svg>
