<svg width="24" height="24" viewBox="0 0 24 24" fill="none" xmlns="http://www.w3.org/2000/svg">
<g id="Group 7">
<g id="Group 1">
<g id="Vector">
<path d="M10.4211 18.8421C15.0719 18.8421 18.8421 15.0719 18.8421 10.4211C18.8421 5.77023 15.0719 2 10.4211 2C5.77023 2 2 5.77023 2 10.4211C2 15.0719 5.77023 18.8421 10.4211 18.8421Z" stroke="#173F5F" stroke-width="1.5" stroke-linecap="round" stroke-linejoin="round"/>
<path d="M10.4211 18.8421C15.0719 18.8421 18.8421 15.0719 18.8421 10.4211C18.8421 5.77023 15.0719 2 10.4211 2C5.77023 2 2 5.77023 2 10.4211C2 15.0719 5.77023 18.8421 10.4211 18.8421Z" stroke="black" stroke-opacity="0.2" stroke-width="1.5" stroke-linecap="round" stroke-linejoin="round"/>
<path d="M10.4211 18.8421C15.0719 18.8421 18.8421 15.0719 18.8421 10.4211C18.8421 5.77023 15.0719 2 10.4211 2C5.77023 2 2 5.77023 2 10.4211C2 15.0719 5.77023 18.8421 10.4211 18.8421Z" stroke="black" stroke-opacity="0.2" stroke-width="1.5" stroke-linecap="round" stroke-linejoin="round"/>
<path d="M10.4211 18.8421C15.0719 18.8421 18.8421 15.0719 18.8421 10.4211C18.8421 5.77023 15.0719 2 10.4211 2C5.77023 2 2 5.77023 2 10.4211C2 15.0719 5.77023 18.8421 10.4211 18.8421Z" stroke="black" stroke-opacity="0.2" stroke-width="1.5" stroke-linecap="round" stroke-linejoin="round"/>
<path d="M10.4211 18.8421C15.0719 18.8421 18.8421 15.0719 18.8421 10.4211C18.8421 5.77023 15.0719 2 10.4211 2C5.77023 2 2 5.77023 2 10.4211C2 15.0719 5.77023 18.8421 10.4211 18.8421Z" stroke="black" stroke-opacity="0.2" stroke-width="1.5" stroke-linecap="round" stroke-linejoin="round"/>
</g>
<g id="Vector 13">
<path d="M16.7368 16.7368L22 22" stroke="#173F5F" stroke-width="1.5" stroke-linecap="round"/>
<path d="M16.7368 16.7368L22 22" stroke="black" stroke-opacity="0.2" stroke-width="1.5" stroke-linecap="round"/>
<path d="M16.7368 16.7368L22 22" stroke="black" stroke-opacity="0.2" stroke-width="1.5" stroke-linecap="round"/>
<path d="M16.7368 16.7368L22 22" stroke="black" stroke-opacity="0.2" stroke-width="1.5" stroke-linecap="round"/>
<path d="M16.7368 16.7368L22 22" stroke="black" stroke-opacity="0.2" stroke-width="1.5" stroke-linecap="round"/>
</g>
</g>
</g>
</svg>
