<svg width="34" height="34" viewBox="0 0 34 34" fill="none" xmlns="http://www.w3.org/2000/svg">
<g id="tabler-icon-dots">
<g id="Vector">
<path d="M16.9998 5.6665C16.6241 5.6665 16.2638 5.81576 15.9981 6.08144C15.7324 6.34711 15.5832 6.70745 15.5832 7.08317C15.5832 7.45889 15.7324 7.81923 15.9981 8.0849C16.2638 8.35058 16.6241 8.49984 16.9998 8.49984C17.3756 8.49984 17.7359 8.35058 18.0016 8.0849C18.2672 7.81923 18.4165 7.45889 18.4165 7.08317C18.4165 6.70745 18.2672 6.34711 18.0016 6.08144C17.7359 5.81576 17.3756 5.6665 16.9998 5.6665Z" fill="#173F5F"/>
<path d="M16.9998 5.6665C16.6241 5.6665 16.2638 5.81576 15.9981 6.08144C15.7324 6.34711 15.5832 6.70745 15.5832 7.08317C15.5832 7.45889 15.7324 7.81923 15.9981 8.0849C16.2638 8.35058 16.6241 8.49984 16.9998 8.49984C17.3756 8.49984 17.7359 8.35058 18.0016 8.0849C18.2672 7.81923 18.4165 7.45889 18.4165 7.08317C18.4165 6.70745 18.2672 6.34711 18.0016 6.08144C17.7359 5.81576 17.3756 5.6665 16.9998 5.6665Z" fill="black" fill-opacity="0.2"/>
<path d="M16.9998 5.6665C16.6241 5.6665 16.2638 5.81576 15.9981 6.08144C15.7324 6.34711 15.5832 6.70745 15.5832 7.08317C15.5832 7.45889 15.7324 7.81923 15.9981 8.0849C16.2638 8.35058 16.6241 8.49984 16.9998 8.49984C17.3756 8.49984 17.7359 8.35058 18.0016 8.0849C18.2672 7.81923 18.4165 7.45889 18.4165 7.08317C18.4165 6.70745 18.2672 6.34711 18.0016 6.08144C17.7359 5.81576 17.3756 5.6665 16.9998 5.6665Z" fill="black" fill-opacity="0.2"/>
<path d="M16.9998 5.6665C16.6241 5.6665 16.2638 5.81576 15.9981 6.08144C15.7324 6.34711 15.5832 6.70745 15.5832 7.08317C15.5832 7.45889 15.7324 7.81923 15.9981 8.0849C16.2638 8.35058 16.6241 8.49984 16.9998 8.49984C17.3756 8.49984 17.7359 8.35058 18.0016 8.0849C18.2672 7.81923 18.4165 7.45889 18.4165 7.08317C18.4165 6.70745 18.2672 6.34711 18.0016 6.08144C17.7359 5.81576 17.3756 5.6665 16.9998 5.6665Z" fill="black" fill-opacity="0.2"/>
<path d="M16.9998 5.6665C16.6241 5.6665 16.2638 5.81576 15.9981 6.08144C15.7324 6.34711 15.5832 6.70745 15.5832 7.08317C15.5832 7.45889 15.7324 7.81923 15.9981 8.0849C16.2638 8.35058 16.6241 8.49984 16.9998 8.49984C17.3756 8.49984 17.7359 8.35058 18.0016 8.0849C18.2672 7.81923 18.4165 7.45889 18.4165 7.08317C18.4165 6.70745 18.2672 6.34711 18.0016 6.08144C17.7359 5.81576 17.3756 5.6665 16.9998 5.6665Z" fill="black" fill-opacity="0.2"/>
<path d="M16.9998 15.5832C16.6241 15.5832 16.2638 15.7324 15.9981 15.9981C15.7324 16.2638 15.5832 16.6241 15.5832 16.9998C15.5832 17.3756 15.7324 17.7359 15.9981 18.0016C16.2638 18.2672 16.6241 18.4165 16.9998 18.4165C17.3756 18.4165 17.7359 18.2672 18.0016 18.0016C18.2672 17.7359 18.4165 17.3756 18.4165 16.9998C18.4165 16.6241 18.2672 16.2638 18.0016 15.9981C17.7359 15.7324 17.3756 15.5832 16.9998 15.5832Z" fill="#173F5F"/>
<path d="M16.9998 15.5832C16.6241 15.5832 16.2638 15.7324 15.9981 15.9981C15.7324 16.2638 15.5832 16.6241 15.5832 16.9998C15.5832 17.3756 15.7324 17.7359 15.9981 18.0016C16.2638 18.2672 16.6241 18.4165 16.9998 18.4165C17.3756 18.4165 17.7359 18.2672 18.0016 18.0016C18.2672 17.7359 18.4165 17.3756 18.4165 16.9998C18.4165 16.6241 18.2672 16.2638 18.0016 15.9981C17.7359 15.7324 17.3756 15.5832 16.9998 15.5832Z" fill="black" fill-opacity="0.2"/>
<path d="M16.9998 15.5832C16.6241 15.5832 16.2638 15.7324 15.9981 15.9981C15.7324 16.2638 15.5832 16.6241 15.5832 16.9998C15.5832 17.3756 15.7324 17.7359 15.9981 18.0016C16.2638 18.2672 16.6241 18.4165 16.9998 18.4165C17.3756 18.4165 17.7359 18.2672 18.0016 18.0016C18.2672 17.7359 18.4165 17.3756 18.4165 16.9998C18.4165 16.6241 18.2672 16.2638 18.0016 15.9981C17.7359 15.7324 17.3756 15.5832 16.9998 15.5832Z" fill="black" fill-opacity="0.2"/>
<path d="M16.9998 15.5832C16.6241 15.5832 16.2638 15.7324 15.9981 15.9981C15.7324 16.2638 15.5832 16.6241 15.5832 16.9998C15.5832 17.3756 15.7324 17.7359 15.9981 18.0016C16.2638 18.2672 16.6241 18.4165 16.9998 18.4165C17.3756 18.4165 17.7359 18.2672 18.0016 18.0016C18.2672 17.7359 18.4165 17.3756 18.4165 16.9998C18.4165 16.6241 18.2672 16.2638 18.0016 15.9981C17.7359 15.7324 17.3756 15.5832 16.9998 15.5832Z" fill="black" fill-opacity="0.2"/>
<path d="M16.9998 15.5832C16.6241 15.5832 16.2638 15.7324 15.9981 15.9981C15.7324 16.2638 15.5832 16.6241 15.5832 16.9998C15.5832 17.3756 15.7324 17.7359 15.9981 18.0016C16.2638 18.2672 16.6241 18.4165 16.9998 18.4165C17.3756 18.4165 17.7359 18.2672 18.0016 18.0016C18.2672 17.7359 18.4165 17.3756 18.4165 16.9998C18.4165 16.6241 18.2672 16.2638 18.0016 15.9981C17.7359 15.7324 17.3756 15.5832 16.9998 15.5832Z" fill="black" fill-opacity="0.2"/>
<path d="M16.9998 25.4998C16.6241 25.4998 16.2638 25.6491 15.9981 25.9148C15.7324 26.1804 15.5832 26.5408 15.5832 26.9165C15.5832 27.2922 15.7324 27.6526 15.9981 27.9182C16.2638 28.1839 16.6241 28.3332 16.9998 28.3332C17.3756 28.3332 17.7359 28.1839 18.0016 27.9182C18.2672 27.6526 18.4165 27.2922 18.4165 26.9165C18.4165 26.5408 18.2672 26.1804 18.0016 25.9148C17.7359 25.6491 17.3756 25.4998 16.9998 25.4998Z" fill="#173F5F"/>
<path d="M16.9998 25.4998C16.6241 25.4998 16.2638 25.6491 15.9981 25.9148C15.7324 26.1804 15.5832 26.5408 15.5832 26.9165C15.5832 27.2922 15.7324 27.6526 15.9981 27.9182C16.2638 28.1839 16.6241 28.3332 16.9998 28.3332C17.3756 28.3332 17.7359 28.1839 18.0016 27.9182C18.2672 27.6526 18.4165 27.2922 18.4165 26.9165C18.4165 26.5408 18.2672 26.1804 18.0016 25.9148C17.7359 25.6491 17.3756 25.4998 16.9998 25.4998Z" fill="black" fill-opacity="0.2"/>
<path d="M16.9998 25.4998C16.6241 25.4998 16.2638 25.6491 15.9981 25.9148C15.7324 26.1804 15.5832 26.5408 15.5832 26.9165C15.5832 27.2922 15.7324 27.6526 15.9981 27.9182C16.2638 28.1839 16.6241 28.3332 16.9998 28.3332C17.3756 28.3332 17.7359 28.1839 18.0016 27.9182C18.2672 27.6526 18.4165 27.2922 18.4165 26.9165C18.4165 26.5408 18.2672 26.1804 18.0016 25.9148C17.7359 25.6491 17.3756 25.4998 16.9998 25.4998Z" fill="black" fill-opacity="0.2"/>
<path d="M16.9998 25.4998C16.6241 25.4998 16.2638 25.6491 15.9981 25.9148C15.7324 26.1804 15.5832 26.5408 15.5832 26.9165C15.5832 27.2922 15.7324 27.6526 15.9981 27.9182C16.2638 28.1839 16.6241 28.3332 16.9998 28.3332C17.3756 28.3332 17.7359 28.1839 18.0016 27.9182C18.2672 27.6526 18.4165 27.2922 18.4165 26.9165C18.4165 26.5408 18.2672 26.1804 18.0016 25.9148C17.7359 25.6491 17.3756 25.4998 16.9998 25.4998Z" fill="black" fill-opacity="0.2"/>
<path d="M16.9998 25.4998C16.6241 25.4998 16.2638 25.6491 15.9981 25.9148C15.7324 26.1804 15.5832 26.5408 15.5832 26.9165C15.5832 27.2922 15.7324 27.6526 15.9981 27.9182C16.2638 28.1839 16.6241 28.3332 16.9998 28.3332C17.3756 28.3332 17.7359 28.1839 18.0016 27.9182C18.2672 27.6526 18.4165 27.2922 18.4165 26.9165C18.4165 26.5408 18.2672 26.1804 18.0016 25.9148C17.7359 25.6491 17.3756 25.4998 16.9998 25.4998Z" fill="black" fill-opacity="0.2"/>
<path d="M16.9998 5.6665C16.6241 5.6665 16.2638 5.81576 15.9981 6.08144C15.7324 6.34711 15.5832 6.70745 15.5832 7.08317C15.5832 7.45889 15.7324 7.81923 15.9981 8.0849C16.2638 8.35058 16.6241 8.49984 16.9998 8.49984C17.3756 8.49984 17.7359 8.35058 18.0016 8.0849C18.2672 7.81923 18.4165 7.45889 18.4165 7.08317C18.4165 6.70745 18.2672 6.34711 18.0016 6.08144C17.7359 5.81576 17.3756 5.6665 16.9998 5.6665Z" stroke="#173F5F" stroke-width="2" stroke-linecap="round" stroke-linejoin="round"/>
<path d="M16.9998 5.6665C16.6241 5.6665 16.2638 5.81576 15.9981 6.08144C15.7324 6.34711 15.5832 6.70745 15.5832 7.08317C15.5832 7.45889 15.7324 7.81923 15.9981 8.0849C16.2638 8.35058 16.6241 8.49984 16.9998 8.49984C17.3756 8.49984 17.7359 8.35058 18.0016 8.0849C18.2672 7.81923 18.4165 7.45889 18.4165 7.08317C18.4165 6.70745 18.2672 6.34711 18.0016 6.08144C17.7359 5.81576 17.3756 5.6665 16.9998 5.6665Z" stroke="black" stroke-opacity="0.2" stroke-width="2" stroke-linecap="round" stroke-linejoin="round"/>
<path d="M16.9998 5.6665C16.6241 5.6665 16.2638 5.81576 15.9981 6.08144C15.7324 6.34711 15.5832 6.70745 15.5832 7.08317C15.5832 7.45889 15.7324 7.81923 15.9981 8.0849C16.2638 8.35058 16.6241 8.49984 16.9998 8.49984C17.3756 8.49984 17.7359 8.35058 18.0016 8.0849C18.2672 7.81923 18.4165 7.45889 18.4165 7.08317C18.4165 6.70745 18.2672 6.34711 18.0016 6.08144C17.7359 5.81576 17.3756 5.6665 16.9998 5.6665Z" stroke="black" stroke-opacity="0.2" stroke-width="2" stroke-linecap="round" stroke-linejoin="round"/>
<path d="M16.9998 5.6665C16.6241 5.6665 16.2638 5.81576 15.9981 6.08144C15.7324 6.34711 15.5832 6.70745 15.5832 7.08317C15.5832 7.45889 15.7324 7.81923 15.9981 8.0849C16.2638 8.35058 16.6241 8.49984 16.9998 8.49984C17.3756 8.49984 17.7359 8.35058 18.0016 8.0849C18.2672 7.81923 18.4165 7.45889 18.4165 7.08317C18.4165 6.70745 18.2672 6.34711 18.0016 6.08144C17.7359 5.81576 17.3756 5.6665 16.9998 5.6665Z" stroke="black" stroke-opacity="0.2" stroke-width="2" stroke-linecap="round" stroke-linejoin="round"/>
<path d="M16.9998 5.6665C16.6241 5.6665 16.2638 5.81576 15.9981 6.08144C15.7324 6.34711 15.5832 6.70745 15.5832 7.08317C15.5832 7.45889 15.7324 7.81923 15.9981 8.0849C16.2638 8.35058 16.6241 8.49984 16.9998 8.49984C17.3756 8.49984 17.7359 8.35058 18.0016 8.0849C18.2672 7.81923 18.4165 7.45889 18.4165 7.08317C18.4165 6.70745 18.2672 6.34711 18.0016 6.08144C17.7359 5.81576 17.3756 5.6665 16.9998 5.6665Z" stroke="black" stroke-opacity="0.2" stroke-width="2" stroke-linecap="round" stroke-linejoin="round"/>
<path d="M16.9998 15.5832C16.6241 15.5832 16.2638 15.7324 15.9981 15.9981C15.7324 16.2638 15.5832 16.6241 15.5832 16.9998C15.5832 17.3756 15.7324 17.7359 15.9981 18.0016C16.2638 18.2672 16.6241 18.4165 16.9998 18.4165C17.3756 18.4165 17.7359 18.2672 18.0016 18.0016C18.2672 17.7359 18.4165 17.3756 18.4165 16.9998C18.4165 16.6241 18.2672 16.2638 18.0016 15.9981C17.7359 15.7324 17.3756 15.5832 16.9998 15.5832Z" stroke="#173F5F" stroke-width="2" stroke-linecap="round" stroke-linejoin="round"/>
<path d="M16.9998 15.5832C16.6241 15.5832 16.2638 15.7324 15.9981 15.9981C15.7324 16.2638 15.5832 16.6241 15.5832 16.9998C15.5832 17.3756 15.7324 17.7359 15.9981 18.0016C16.2638 18.2672 16.6241 18.4165 16.9998 18.4165C17.3756 18.4165 17.7359 18.2672 18.0016 18.0016C18.2672 17.7359 18.4165 17.3756 18.4165 16.9998C18.4165 16.6241 18.2672 16.2638 18.0016 15.9981C17.7359 15.7324 17.3756 15.5832 16.9998 15.5832Z" stroke="black" stroke-opacity="0.2" stroke-width="2" stroke-linecap="round" stroke-linejoin="round"/>
<path d="M16.9998 15.5832C16.6241 15.5832 16.2638 15.7324 15.9981 15.9981C15.7324 16.2638 15.5832 16.6241 15.5832 16.9998C15.5832 17.3756 15.7324 17.7359 15.9981 18.0016C16.2638 18.2672 16.6241 18.4165 16.9998 18.4165C17.3756 18.4165 17.7359 18.2672 18.0016 18.0016C18.2672 17.7359 18.4165 17.3756 18.4165 16.9998C18.4165 16.6241 18.2672 16.2638 18.0016 15.9981C17.7359 15.7324 17.3756 15.5832 16.9998 15.5832Z" stroke="black" stroke-opacity="0.2" stroke-width="2" stroke-linecap="round" stroke-linejoin="round"/>
<path d="M16.9998 15.5832C16.6241 15.5832 16.2638 15.7324 15.9981 15.9981C15.7324 16.2638 15.5832 16.6241 15.5832 16.9998C15.5832 17.3756 15.7324 17.7359 15.9981 18.0016C16.2638 18.2672 16.6241 18.4165 16.9998 18.4165C17.3756 18.4165 17.7359 18.2672 18.0016 18.0016C18.2672 17.7359 18.4165 17.3756 18.4165 16.9998C18.4165 16.6241 18.2672 16.2638 18.0016 15.9981C17.7359 15.7324 17.3756 15.5832 16.9998 15.5832Z" stroke="black" stroke-opacity="0.2" stroke-width="2" stroke-linecap="round" stroke-linejoin="round"/>
<path d="M16.9998 15.5832C16.6241 15.5832 16.2638 15.7324 15.9981 15.9981C15.7324 16.2638 15.5832 16.6241 15.5832 16.9998C15.5832 17.3756 15.7324 17.7359 15.9981 18.0016C16.2638 18.2672 16.6241 18.4165 16.9998 18.4165C17.3756 18.4165 17.7359 18.2672 18.0016 18.0016C18.2672 17.7359 18.4165 17.3756 18.4165 16.9998C18.4165 16.6241 18.2672 16.2638 18.0016 15.9981C17.7359 15.7324 17.3756 15.5832 16.9998 15.5832Z" stroke="black" stroke-opacity="0.2" stroke-width="2" stroke-linecap="round" stroke-linejoin="round"/>
<path d="M16.9998 25.4998C16.6241 25.4998 16.2638 25.6491 15.9981 25.9148C15.7324 26.1804 15.5832 26.5408 15.5832 26.9165C15.5832 27.2922 15.7324 27.6526 15.9981 27.9182C16.2638 28.1839 16.6241 28.3332 16.9998 28.3332C17.3756 28.3332 17.7359 28.1839 18.0016 27.9182C18.2672 27.6526 18.4165 27.2922 18.4165 26.9165C18.4165 26.5408 18.2672 26.1804 18.0016 25.9148C17.7359 25.6491 17.3756 25.4998 16.9998 25.4998Z" stroke="#173F5F" stroke-width="2" stroke-linecap="round" stroke-linejoin="round"/>
<path d="M16.9998 25.4998C16.6241 25.4998 16.2638 25.6491 15.9981 25.9148C15.7324 26.1804 15.5832 26.5408 15.5832 26.9165C15.5832 27.2922 15.7324 27.6526 15.9981 27.9182C16.2638 28.1839 16.6241 28.3332 16.9998 28.3332C17.3756 28.3332 17.7359 28.1839 18.0016 27.9182C18.2672 27.6526 18.4165 27.2922 18.4165 26.9165C18.4165 26.5408 18.2672 26.1804 18.0016 25.9148C17.7359 25.6491 17.3756 25.4998 16.9998 25.4998Z" stroke="black" stroke-opacity="0.2" stroke-width="2" stroke-linecap="round" stroke-linejoin="round"/>
<path d="M16.9998 25.4998C16.6241 25.4998 16.2638 25.6491 15.9981 25.9148C15.7324 26.1804 15.5832 26.5408 15.5832 26.9165C15.5832 27.2922 15.7324 27.6526 15.9981 27.9182C16.2638 28.1839 16.6241 28.3332 16.9998 28.3332C17.3756 28.3332 17.7359 28.1839 18.0016 27.9182C18.2672 27.6526 18.4165 27.2922 18.4165 26.9165C18.4165 26.5408 18.2672 26.1804 18.0016 25.9148C17.7359 25.6491 17.3756 25.4998 16.9998 25.4998Z" stroke="black" stroke-opacity="0.2" stroke-width="2" stroke-linecap="round" stroke-linejoin="round"/>
<path d="M16.9998 25.4998C16.6241 25.4998 16.2638 25.6491 15.9981 25.9148C15.7324 26.1804 15.5832 26.5408 15.5832 26.9165C15.5832 27.2922 15.7324 27.6526 15.9981 27.9182C16.2638 28.1839 16.6241 28.3332 16.9998 28.3332C17.3756 28.3332 17.7359 28.1839 18.0016 27.9182C18.2672 27.6526 18.4165 27.2922 18.4165 26.9165C18.4165 26.5408 18.2672 26.1804 18.0016 25.9148C17.7359 25.6491 17.3756 25.4998 16.9998 25.4998Z" stroke="black" stroke-opacity="0.2" stroke-width="2" stroke-linecap="round" stroke-linejoin="round"/>
<path d="M16.9998 25.4998C16.6241 25.4998 16.2638 25.6491 15.9981 25.9148C15.7324 26.1804 15.5832 26.5408 15.5832 26.9165C15.5832 27.2922 15.7324 27.6526 15.9981 27.9182C16.2638 28.1839 16.6241 28.3332 16.9998 28.3332C17.3756 28.3332 17.7359 28.1839 18.0016 27.9182C18.2672 27.6526 18.4165 27.2922 18.4165 26.9165C18.4165 26.5408 18.2672 26.1804 18.0016 25.9148C17.7359 25.6491 17.3756 25.4998 16.9998 25.4998Z" stroke="black" stroke-opacity="0.2" stroke-width="2" stroke-linecap="round" stroke-linejoin="round"/>
</g>
</g>
</svg>
