<svg width="36" height="36" viewBox="0 0 36 36" fill="none" xmlns="http://www.w3.org/2000/svg">
<g clip-path="url(#clip0_3309_3566)">
<path d="M27.1112 9V13.4986C19.8057 14.6547 17.0891 21.1327 16.0002 26.9943C15.9591 27.226 21.9824 20.2892 27.1112 20.2465V24.745L36 16.8725L27.1112 9Z" stroke="#173F5F" stroke-width="1.5" stroke-linecap="round" stroke-linejoin="round"/>
<path d="M27.1112 9V13.4986C19.8057 14.6547 17.0891 21.1327 16.0002 26.9943C15.9591 27.226 21.9824 20.2892 27.1112 20.2465V24.745L36 16.8725L27.1112 9Z" stroke="black" stroke-opacity="0.2" stroke-width="1.5" stroke-linecap="round" stroke-linejoin="round"/>
<path d="M27.1112 9V13.4986C19.8057 14.6547 17.0891 21.1327 16.0002 26.9943C15.9591 27.226 21.9824 20.2892 27.1112 20.2465V24.745L36 16.8725L27.1112 9Z" stroke="black" stroke-opacity="0.2" stroke-width="1.5" stroke-linecap="round" stroke-linejoin="round"/>
<path d="M27.1112 9V13.4986C19.8057 14.6547 17.0891 21.1327 16.0002 26.9943C15.9591 27.226 21.9824 20.2892 27.1112 20.2465V24.745L36 16.8725L27.1112 9Z" stroke="black" stroke-opacity="0.2" stroke-width="1.5" stroke-linecap="round" stroke-linejoin="round"/>
<path d="M27.1112 9V13.4986C19.8057 14.6547 17.0891 21.1327 16.0002 26.9943C15.9591 27.226 21.9824 20.2892 27.1112 20.2465V24.745L36 16.8725L27.1112 9Z" stroke="black" stroke-opacity="0.2" stroke-width="1.5" stroke-linecap="round" stroke-linejoin="round"/>
</g>
<defs>
<clipPath id="clip0_3309_3566">
<rect width="36" height="36" fill="white"/>
</clipPath>
</defs>
</svg>
